# xmcd
#
# Track frame offsets:
# 150
# 21677
# 42610
# 64437
# 85567
# 109285
# 133815
# 156825
# 176535
# 194105
# 216630
# 235135
# 258487
# 280965
#
# Disc length: 4057 seconds
#
#
# Revision: 3
# Processed by: cddbd v1.5PL3 Copyright (c) Steve Scherf et al.
# Submitted via: FreeRIP 2.53 
#
DISCID=e40fd70e
DTITLE=Various Artist - Wave Music Vol. 2 [CD 2)
DYEAR=1900
DGENRE=
TTITLE0=Khani Cole - Call On Me
TTITLE1=Joe McBride - Lower
TTITLE2=Khani Cole - Somebody
TTITLE3=Joe McBride - Midgnight In Madrid
TTITLE4=Luis Villegas - Cafe Olé
TTITLE5=Luis Villegas - Inside
TTITLE6=Antonio Koudele - Was It Love Or Play
TTITLE7=Mark Portmann - Here I Go Again
TTITLE8=Blue Knights - Yelow Nights
TTITLE9=Joyce Cooling - Savannah
TTITLE10=Joyce Cooling - Imagine That
TTITLE11=Mark Portmann - Summer In Trujillo
TTITLE12=Slim Man - Faith In Us
TTITLE13=Mark Portman - No Truer Words
EXTD=
EXTT0=
EXTT1=
EXTT2=
EXTT3=
EXTT4=
EXTT5=
EXTT6=
EXTT7=
EXTT8=
EXTT9=
EXTT10=
EXTT11=
EXTT12=
EXTT13=
PLAYORDER=
